<mxfile host="Electron" modified="2023-05-01T07:36:21.904Z" agent="Mozilla/5.0 (Macintosh; Intel Mac OS X 10_15_7) AppleWebKit/537.36 (KHTML, like Gecko) draw.io/21.2.1 Chrome/112.0.5615.87 Electron/24.1.2 Safari/537.36" etag="cU9E0pTANzWsY1h1klXM" version="21.2.1" type="device">
  <diagram name="Page-1" id="xw3341EZ3EfyC7uBRgyo">
    <mxGraphModel dx="1035" dy="683" grid="1" gridSize="10" guides="1" tooltips="1" connect="1" arrows="1" fold="1" page="1" pageScale="1" pageWidth="850" pageHeight="1100" math="0" shadow="0">
      <root>
        <mxCell id="0" />
        <mxCell id="1" parent="0" />
        <mxCell id="mfBCwPf9Ix2Ev4tTwE13-30" style="edgeStyle=orthogonalEdgeStyle;rounded=0;orthogonalLoop=1;jettySize=auto;html=1;" edge="1" parent="1" source="mfBCwPf9Ix2Ev4tTwE13-26" target="mfBCwPf9Ix2Ev4tTwE13-13">
          <mxGeometry relative="1" as="geometry" />
        </mxCell>
        <mxCell id="mfBCwPf9Ix2Ev4tTwE13-26" value="" style="rounded=0;whiteSpace=wrap;html=1;" vertex="1" parent="1">
          <mxGeometry x="400" y="180" width="360" height="120" as="geometry" />
        </mxCell>
        <mxCell id="mfBCwPf9Ix2Ev4tTwE13-5" value="" style="group" vertex="1" connectable="0" parent="1">
          <mxGeometry x="600" y="200" width="140" height="80" as="geometry" />
        </mxCell>
        <mxCell id="mfBCwPf9Ix2Ev4tTwE13-2" value="" style="rounded=0;whiteSpace=wrap;html=1;" vertex="1" parent="mfBCwPf9Ix2Ev4tTwE13-5">
          <mxGeometry width="120" height="60" as="geometry" />
        </mxCell>
        <mxCell id="mfBCwPf9Ix2Ev4tTwE13-3" value="" style="rounded=0;whiteSpace=wrap;html=1;" vertex="1" parent="mfBCwPf9Ix2Ev4tTwE13-5">
          <mxGeometry x="10" y="10" width="120" height="60" as="geometry" />
        </mxCell>
        <mxCell id="mfBCwPf9Ix2Ev4tTwE13-4" value="HttpWatchers" style="rounded=0;whiteSpace=wrap;html=1;" vertex="1" parent="mfBCwPf9Ix2Ev4tTwE13-5">
          <mxGeometry x="20" y="20" width="120" height="60" as="geometry" />
        </mxCell>
        <mxCell id="mfBCwPf9Ix2Ev4tTwE13-6" value="" style="group" vertex="1" connectable="0" parent="1">
          <mxGeometry x="420" y="200" width="140" height="80" as="geometry" />
        </mxCell>
        <mxCell id="mfBCwPf9Ix2Ev4tTwE13-7" value="" style="rounded=0;whiteSpace=wrap;html=1;" vertex="1" parent="mfBCwPf9Ix2Ev4tTwE13-6">
          <mxGeometry width="120" height="60" as="geometry" />
        </mxCell>
        <mxCell id="mfBCwPf9Ix2Ev4tTwE13-8" value="" style="rounded=0;whiteSpace=wrap;html=1;" vertex="1" parent="mfBCwPf9Ix2Ev4tTwE13-6">
          <mxGeometry x="10" y="10" width="120" height="60" as="geometry" />
        </mxCell>
        <mxCell id="mfBCwPf9Ix2Ev4tTwE13-9" value="RedisKeyWatchers" style="rounded=0;whiteSpace=wrap;html=1;" vertex="1" parent="mfBCwPf9Ix2Ev4tTwE13-6">
          <mxGeometry x="20" y="20" width="120" height="60" as="geometry" />
        </mxCell>
        <mxCell id="mfBCwPf9Ix2Ev4tTwE13-10" value="" style="ellipse;shape=cloud;whiteSpace=wrap;html=1;" vertex="1" parent="1">
          <mxGeometry x="610" y="40" width="90" height="80" as="geometry" />
        </mxCell>
        <mxCell id="mfBCwPf9Ix2Ev4tTwE13-11" value="" style="shape=cylinder3;whiteSpace=wrap;html=1;boundedLbl=1;backgroundOutline=1;size=15;" vertex="1" parent="1">
          <mxGeometry x="450" y="40" width="60" height="80" as="geometry" />
        </mxCell>
        <mxCell id="mfBCwPf9Ix2Ev4tTwE13-23" style="edgeStyle=orthogonalEdgeStyle;rounded=0;orthogonalLoop=1;jettySize=auto;html=1;exitX=0.5;exitY=1;exitDx=0;exitDy=0;" edge="1" parent="1" source="mfBCwPf9Ix2Ev4tTwE13-12" target="mfBCwPf9Ix2Ev4tTwE13-22">
          <mxGeometry relative="1" as="geometry" />
        </mxCell>
        <mxCell id="mfBCwPf9Ix2Ev4tTwE13-12" value="Notifier" style="rounded=0;whiteSpace=wrap;html=1;" vertex="1" parent="1">
          <mxGeometry x="160" y="360" width="120" height="60" as="geometry" />
        </mxCell>
        <mxCell id="mfBCwPf9Ix2Ev4tTwE13-31" style="edgeStyle=orthogonalEdgeStyle;rounded=0;orthogonalLoop=1;jettySize=auto;html=1;entryX=0;entryY=0.5;entryDx=0;entryDy=0;" edge="1" parent="1" source="mfBCwPf9Ix2Ev4tTwE13-13" target="mfBCwPf9Ix2Ev4tTwE13-12">
          <mxGeometry relative="1" as="geometry">
            <mxPoint x="130" y="260" as="sourcePoint" />
            <Array as="points">
              <mxPoint x="140" y="240" />
              <mxPoint x="140" y="390" />
            </Array>
          </mxGeometry>
        </mxCell>
        <mxCell id="mfBCwPf9Ix2Ev4tTwE13-13" value="Notifications" style="sketch=0;outlineConnect=0;fontColor=#232F3E;gradientColor=none;strokeColor=#232F3E;fillColor=#ffffff;dashed=0;verticalLabelPosition=bottom;verticalAlign=top;align=center;html=1;fontSize=12;fontStyle=0;aspect=fixed;shape=mxgraph.aws4.resourceIcon;resIcon=mxgraph.aws4.queue;" vertex="1" parent="1">
          <mxGeometry x="175" y="195" width="90" height="90" as="geometry" />
        </mxCell>
        <mxCell id="mfBCwPf9Ix2Ev4tTwE13-14" value="" style="image;sketch=0;aspect=fixed;html=1;points=[];align=center;fontSize=12;image=img/lib/mscae/Cache_Redis_Product.svg;" vertex="1" parent="1">
          <mxGeometry x="468.1" y="80" width="23.81" height="20" as="geometry" />
        </mxCell>
        <mxCell id="mfBCwPf9Ix2Ev4tTwE13-22" value="" style="ellipse;shape=cloud;whiteSpace=wrap;html=1;" vertex="1" parent="1">
          <mxGeometry x="175" y="490" width="90" height="80" as="geometry" />
        </mxCell>
        <mxCell id="mfBCwPf9Ix2Ev4tTwE13-27" style="edgeStyle=orthogonalEdgeStyle;rounded=0;orthogonalLoop=1;jettySize=auto;html=1;entryX=0.5;entryY=1;entryDx=0;entryDy=0;" edge="1" parent="1" source="mfBCwPf9Ix2Ev4tTwE13-25" target="mfBCwPf9Ix2Ev4tTwE13-26">
          <mxGeometry relative="1" as="geometry" />
        </mxCell>
        <mxCell id="mfBCwPf9Ix2Ev4tTwE13-25" value="Watchers manager" style="rounded=0;whiteSpace=wrap;html=1;" vertex="1" parent="1">
          <mxGeometry x="520" y="360" width="120" height="60" as="geometry" />
        </mxCell>
        <mxCell id="mfBCwPf9Ix2Ev4tTwE13-28" style="edgeStyle=orthogonalEdgeStyle;rounded=0;orthogonalLoop=1;jettySize=auto;html=1;entryX=0.5;entryY=1;entryDx=0;entryDy=0;entryPerimeter=0;dashed=1;dashPattern=8 8;" edge="1" parent="1" source="mfBCwPf9Ix2Ev4tTwE13-7" target="mfBCwPf9Ix2Ev4tTwE13-11">
          <mxGeometry relative="1" as="geometry">
            <mxPoint x="480" y="140" as="targetPoint" />
          </mxGeometry>
        </mxCell>
        <mxCell id="mfBCwPf9Ix2Ev4tTwE13-29" style="edgeStyle=orthogonalEdgeStyle;rounded=0;orthogonalLoop=1;jettySize=auto;html=1;entryX=0.55;entryY=0.95;entryDx=0;entryDy=0;entryPerimeter=0;dashed=1;dashPattern=8 8;" edge="1" parent="1" source="mfBCwPf9Ix2Ev4tTwE13-2" target="mfBCwPf9Ix2Ev4tTwE13-10">
          <mxGeometry relative="1" as="geometry">
            <mxPoint x="660" y="130" as="targetPoint" />
          </mxGeometry>
        </mxCell>
      </root>
    </mxGraphModel>
  </diagram>
</mxfile>
